OpenSim_Sub04_CSStiffKnee_LCS.mot
version=1
nRows=64
nColumns=11
inDegrees=no
endheader
time	Bot_Shank	2nd_Bot_Shank	2nd_Top_Shank	Top_Shank	Bot_Thigh	Med_Thigh	Top_Thigh	BNOx	BNOy	BNOZ
55.59000000	10054.69180215	10362.48437484	10808.35149794	10837.88181178	12922.96200312	14053.28015652	14713.25192917	188.98909619	-81.55877621	36.53565759
55.60000000	10052.25187981	10361.30904000	10808.17443903	10834.72000786	12939.16299704	14055.73703280	14712.35283732	190.49734358	-80.24400792	74.31252865
55.61000000	10049.47401386	10360.25594199	10807.84700056	10831.77878910	12957.31905021	14057.71410989	14711.21071371	192.18992190	-78.82021089	107.18949048
55.62000000	10046.34914113	10359.33192816	10807.29778073	10829.04152424	12976.89338522	14058.85636932	14709.71870577	194.13552468	-77.34320089	132.94207378
55.63000000	10042.87521506	10358.54170977	10806.46133184	10826.49306015	12997.35533655	14058.83881401	14707.78646530	196.39639373	-75.86720632	149.49536426
55.64000000	10039.15517777	10357.85803632	10805.36129767	10824.14036021	13018.26569074	14057.78565633	14705.57059853	198.93823354	-74.42270347	157.01223321
55.65000000	10035.37279195	10357.22905310	10804.08990476	10822.00741321	13039.25563432	14056.16691091	14703.41781770	201.65243401	-73.02188422	157.37820370
55.66000000	10031.71389926	10356.60227247	10802.74114385	10820.11864585	13059.95816474	14054.46148762	14701.67972523	204.42847341	-71.67647010	152.52311141
55.67000000	10028.36434133	10355.92520681	10801.40900567	10818.49848487	13080.00627946	14053.14829633	14700.70792352	207.15583001	-70.39818267	144.37679200
55.68000000	10025.50995984	10355.14536848	10800.18748095	10817.17135697	13099.03297592	14052.70624692	14700.85401501	209.72398209	-69.19874346	134.86908114
55.69000000	10023.33659644	10354.21026987	10799.17056042	10816.16168889	13116.67125159	14053.61424925	14702.46960210	212.02240790	-68.08987402	125.92981449
55.70000000	10022.00291730	10353.08620848	10798.44252213	10815.48690273	13132.55810064	14056.26574257	14705.82903569	213.95325075	-67.08311764	119.28829743
55.71000000	10021.46674476	10351.87831579	10798.01586129	10815.11265217	13146.36005555	14060.42248462	14710.63572963	215.51225635	-66.18870028	115.19179117
55.72000000	10021.59588237	10350.75394905	10797.87089988	10814.98138814	13157.75688799	14065.56311166	14716.33720210	216.73712332	-65.41625745	113.22330035
55.73000000	10022.25770906	10349.88075903	10797.98780806	10815.03545211	13166.42843202	14071.16492445	14722.37976422	217.66574814	-64.77542188	112.96269630
55.74000000	10023.31960376	10349.42639652	10798.34675605	10815.21718555	13172.05452175	14076.70522378	14728.20972713	218.33602733	-64.27582629	113.98985037
55.75000000	10024.64894540	10349.55851228	10798.92791401	10815.46892994	13174.31499127	14081.66131040	14733.27340193	218.78585738	-63.92710342	115.88463390
55.76000000	10026.11311291	10350.44475710	10799.71145216	10815.73302674	13172.88967467	14085.51048510	14737.01709976	219.05313478	-63.73888599	118.22691823
55.77000000	10027.57948522	10352.25278175	10800.67754068	10815.95181743	13167.45840604	14087.73004865	14738.88713173	219.17575604	-63.72080674	120.59657472
55.78000000	10028.93424860	10355.12776371	10801.80548526	10816.07251015	13157.77270697	14087.85388290	14738.39600778	219.19001154	-63.88029491	122.60186327
55.79000000	10030.25774905	10358.98287483	10803.06566692	10816.09255459	13144.32417325	14085.99999110	14735.73964874	219.11561064	-64.20203184	124.14411655
55.80000000	10031.74487639	10363.59441611	10804.42320155	10816.03904028	13128.04100472	14082.63097677	14731.51715122	218.96248081	-64.65727885	125.29756440
55.81000000	10033.59200091	10368.73691950	10805.84313702	10815.93943983	13109.85704426	14078.21389735	14726.33282283	218.74042310	-65.21712378	126.13867134
55.82000000	10035.99549290	10374.18491694	10807.29052118	10815.82122584	13090.70613474	14073.21581025	14720.79097115	218.45923853	-65.85265450	126.74390188
55.83000000	10039.15172265	10379.71294040	10808.73040190	10815.71187094	13071.52211905	14068.10377291	14715.49590378	218.12872817	-66.53495886	127.18972054
55.84000000	10043.25706043	10385.09552182	10810.12782704	10815.63884774	13053.23884008	14063.34484275	14711.05192833	217.75869303	-67.23512471	127.55259183
55.85000000	10048.50787654	10390.10719315	10811.44784445	10815.62962884	13036.79014069	14059.40607720	14708.06335238	217.35893417	-67.92423990	127.90898027
55.86000000	10055.10054126	10394.52248635	10812.65550199	10815.71168686	13023.10986378	14056.75453369	14707.13448353	216.93925262	-68.57339229	128.33535038
55.87000000	10063.23142487	10398.11593337	10813.71584753	10815.91249442	13013.13185221	14055.85726964	14708.86962939	216.50944942	-69.15366974	128.90816666
55.88000000	10073.05931087	10400.68461189	10814.59647481	10816.25697660	13007.67475827	14057.12975451	14713.79862535	216.07913123	-69.63847763	129.69722999
55.89000000	10084.35495106	10402.25835305	10815.29126039	10816.74375883	13006.36805063	14060.45488349	14721.68248460	215.65589787	-70.02514651	130.70354827
55.90000000	10096.66017940	10403.00429999	10815.80958629	10817.35595118	13008.13964348	14065.40136150	14731.82865644	215.24616528	-70.32512154	131.88754524
55.91000000	10109.51387110	10403.09137064	10816.16103493	10818.07646314	13011.90838352	14071.53383261	14743.53872796	214.85633408	-70.55003030	133.20912010
55.92000000	10122.45490138	10402.68848289	10816.35518871	10818.88820425	13016.59311744	14078.41694089	14756.11428621	214.49280490	-70.71150038	134.62817205
55.93000000	10135.02214547	10401.96455466	10816.40163005	10819.77408402	13021.11269196	14085.61533041	14768.85691827	214.16197835	-70.82115934	136.10460030
55.94000000	10146.75447857	10401.08850383	10816.30994138	10820.71701196	13024.38595376	14092.69364523	14781.06821122	213.87025507	-70.89063477	137.59830404
55.95000000	10157.19077592	10400.22924834	10816.08970510	10821.69989759	13025.33174955	14099.21652943	14792.04975211	213.62403567	-70.93155424	139.06918247
55.96000000	10165.90246687	10399.54443349	10815.75193194	10822.70490441	13022.97522252	14104.77825633	14801.15607369	213.42834511	-70.95521860	140.47899097
55.97000000	10172.79705720	10399.07533097	10815.32237807	10823.70649439	13017.43887984	14109.27898053	14808.28829928	213.27400640	-70.96955538	141.80864723
55.98000000	10177.98031972	10398.79455820	10814.83549861	10824.67458597	13009.49261457	14112.79931012	14813.67001134	213.14346418	-70.98050212	143.05037370
55.99000000	10181.56058984	10398.67384528	10814.32586114	10825.57903890	12999.91468712	14115.42218552	14817.52896006	213.01905480	-70.99397060	144.19653896
56	10183.64620295	10398.68492232	10813.82803325	10826.38971291	12989.48335790	14117.23054715	14820.09289561	212.88311460	-71.01587262	145.23951157
56.01000000	10184.34549444	10398.79951939	10813.37658251	10827.07646773	12978.97688735	14118.30733545	14821.58956820	212.71797994	-71.05211997	146.17166010
56.02000000	10183.76679971	10398.98936660	10813.00607650	10827.60916309	12969.17353586	14118.73549085	14822.24672801	212.50598715	-71.10862445	146.98535312
56.03000000	10182.01845415	10399.22619403	10812.75108280	10827.95765873	12960.85156385	14118.59795376	14822.29212522	212.22947260	-71.19129785	147.67295918
56.04000000	10179.20879316	10399.48173179	10812.64616898	10828.09181438	12954.78923175	14117.97766462	14821.95351003	211.87077261	-71.30605196	148.22684686
56.05000000	10175.44615213	10399.72770997	10812.72590263	10827.98148978	12951.76479996	14116.95756385	14821.45863263	211.41222356	-71.45879859	148.63938473
56.06000000	10170.83886645	10399.93585866	10813.02485132	10827.59654466	12952.55652891	14115.62059188	14821.03524320	210.83616177	-71.65544951	148.90294134
56.07000000	10165.49527153	10400.07790796	10813.57758262	10826.90683875	12957.94267900	14114.04968914	14820.91109194	210.12492360	-71.90191654	149.00988527
56.08000000	10159.52370276	10400.12558796	10814.41866412	10825.88223179	12968.70151066	14112.32779605	14821.31392902	209.26084539	-72.20411146	148.95258509
56.09000000	10153.03249553	10400.05062876	10815.58266340	10824.49258351	12985.61128429	14110.53785304	14822.47150464	208.22626350	-72.56794607	148.72340935
56.10000000	10146.12971431	10399.83178612	10817.09196656	10822.72753242	13009.12721475	14108.74722624	14824.54314776	207.00904037	-72.99734313	148.35782921
56.11000000	10138.92062671	10399.52034629	10818.84320288	10820.78090551	13036.36951872	14106.86249873	14826.98183287	205.65408782	-73.47569158	148.33629019
56.12000000	10131.50885030	10399.21038454	10820.65881188	10818.96699000	13062.49094294	14104.69540022	14828.82382323	204.23997369	-73.97426645	149.40174887
56.13000000	10123.99798135	10398.99652921	10822.36027418	10817.60163004	13082.61880487	14102.05643444	14829.09999617	202.84570086	-74.46418621	152.30055470
56.14000000	10116.49161613	10398.97340865	10823.76907039	10817.00066980	13091.88042201	14098.75610515	14826.84122903	201.55027218	-74.91656934	157.77905716
56.15000000	10109.09566954	10399.21868916	10824.72662386	10817.41948239	13086.14130020	14094.64418651	14821.22339689	200.42250626	-75.30611114	166.38513116
56.16000000	10101.93319285	10399.68467718	10825.22174713	10818.66652225	13066.72261866	14089.86068573	14812.49399883	199.45595354	-75.63394191	177.19980055
56.17000000	10095.13491784	10400.26749244	10825.30931299	10820.34993352	13037.39080557	14084.67569330	14801.38083898	198.61042908	-75.91304019	188.64664221
56.18000000	10088.83161256	10400.86298965	10825.04450585	10822.07691549	13001.92382330	14079.35991332	14788.61398706	197.84558881	-76.15644041	199.14613183
56.19000000	10083.15404504	10401.36702354	10824.48251013	10823.45466744	12964.09963421	14074.18404989	14774.92351278	197.12108865	-76.37717702	207.11874513
56.20000000	10078.23298330	10401.67544882	10823.67851025	10824.09038865	12927.69620068	14069.41880711	14761.03948587	196.39658452	-76.58828445	210.98495781
56.21000000	10074.19919537	10401.68412019	10822.68769059	10823.59127841	12896.49148507	14065.33488908	14747.69197604	195.63173236	-76.80279712	209.16524558
56.22000000	10071.18344930	10401.28889237	10821.56523559	10821.56453600	12874.26344976	14062.20299991	14735.61105301	194.78618809	-77.03374948	200.08008414
